<?xml version="1.0" standalone="no"?>
<!DOCTYPE svg PUBLIC "-//W3C//DTD SVG 20010904//EN"
 "http://www.w3.org/TR/2001/REC-SVG-20010904/DTD/svg10.dtd">
<svg version="1.0" xmlns="http://www.w3.org/2000/svg"
 width="1024.000000pt" height="1024.000000pt" viewBox="0 0 1024.000000 1024.000000"
 preserveAspectRatio="xMidYMid meet">
<metadata>
Created by potrace 1.16, written by Peter Selinger 2001-2019
</metadata>
<g transform="translate(0.000000,1024.000000) scale(0.100000,-0.100000)"
fill="#000000" stroke="none">
<path d="M0 5120 l0 -5120 5120 0 5120 0 0 5120 0 5120 -5120 0 -5120 0 0
-5120z m5060 1100 c0 -8 -156 -233 -295 -425 -39 -55 -150 -210 -245 -345 -95
-135 -177 -250 -181 -255 -4 -6 23 -53 60 -105 37 -52 121 -171 187 -265 66
-93 209 -296 318 -450 l198 -280 -293 -3 c-269 -2 -295 -1 -310 15 -10 10 -48
63 -86 118 -112 162 -438 628 -555 793 -59 84 -108 156 -108 161 0 4 72 110
160 235 88 125 242 345 342 489 99 144 192 277 205 295 l25 33 289 -1 c159 -1
289 -5 289 -10z m320 -80 c0 -49 3 -90 6 -90 3 0 29 18 56 40 64 51 154 95
238 116 71 19 190 21 848 16 l352 -2 0 -65 c0 -64 0 -64 -32 -74 l-33 -9 33
-1 c17 -1 32 -6 32 -12 0 -5 -8 -9 -17 -8 -37 3 -48 0 -36 -12 6 -6 9 -18 6
-25 -3 -9 2 -14 13 -15 12 0 14 -3 6 -6 -10 -4 -10 -8 -1 -19 9 -11 8 -14 -7
-14 -18 -1 -18 -1 0 -15 18 -13 18 -15 3 -15 -14 0 -16 -4 -7 -19 5 -11 10
-29 10 -41 0 -11 7 -23 15 -26 11 -4 15 -21 15 -55 l0 -49 -513 0 c-512 0
-513 0 -557 -22 -67 -35 -85 -66 -85 -148 0 -74 14 -103 69 -144 26 -20 45
-21 369 -27 210 -4 361 -10 391 -18 72 -17 147 -52 139 -64 -3 -6 -1 -7 6 -3
16 10 95 -42 151 -98 36 -38 41 -46 25 -47 -11 0 -14 -3 -7 -6 18 -7 4 -23
-20 -23 -29 0 -16 -10 18 -15 43 -5 43 -7 -1 -15 l-40 -7 38 -2 c54 -2 45 -17
-15 -26 l-53 -8 35 -8 c19 -5 40 -6 47 -4 6 2 2 -12 -9 -31 -17 -28 -19 -43
-12 -82 12 -76 15 -104 17 -165 2 -52 4 -57 25 -57 26 0 28 -12 6 -31 -12 -10
-17 -10 -23 0 -9 13 -23 1 -34 -31 -5 -15 0 -18 26 -20 l32 -1 -35 -5 c-33 -5
-34 -5 -10 -12 24 -8 24 -8 3 -9 -27 -1 -31 -20 -5 -22 9 -1 1 -5 -18 -9 -28
-6 -30 -8 -10 -9 l25 -2 -25 -14 c-25 -14 -25 -14 15 -16 22 -1 32 -3 22 -6
-11 -3 -16 -11 -13 -19 4 -10 -3 -14 -24 -14 -17 0 -30 -4 -30 -10 0 -5 12
-10 28 -10 21 0 24 -2 12 -10 -13 -9 -13 -10 0 -10 11 0 10 -3 -4 -11 -15 -9
-16 -13 -5 -20 10 -6 7 -9 -11 -10 -25 -1 -24 -1 5 -14 17 -8 24 -14 16 -15
-11 0 -11 -3 -1 -15 10 -12 10 -15 -1 -15 -10 -1 -9 -5 4 -14 17 -13 16 -14
-3 -19 -25 -7 -26 -33 -1 -33 10 0 18 5 17 11 -2 5 -1 6 2 2 2 -4 11 -2 20 5
36 28 -28 -44 -69 -78 -50 -41 -108 -72 -199 -104 -61 -22 -88 -24 -395 -32
-181 -4 -420 -7 -530 -6 l-200 3 -3 233 -3 232 458 0 c425 0 461 2 499 19 61
28 88 72 92 151 3 55 0 70 -20 99 -12 19 -36 44 -51 55 -27 20 -43 21 -385 27
-325 5 -363 7 -419 26 -82 27 -180 83 -222 127 -19 20 -39 36 -44 36 -5 0 -6
-212 -2 -505 l6 -505 -120 0 -121 0 0 1070 0 1070 115 0 115 0 0 -90z m-1650
-980 l0 -1060 -227 2 c-126 1 -191 4 -145 5 45 2 82 8 82 13 0 6 -8 11 -17 11
-17 1 -17 2 0 6 9 2 17 11 17 19 0 8 -8 14 -17 15 -11 0 -13 3 -5 6 20 8 14
23 -9 23 -15 0 -19 5 -15 15 3 10 -1 15 -12 15 -13 1 -12 3 6 13 17 10 20 15
10 25 -9 9 -9 12 2 12 12 1 11 4 -3 14 -16 13 -16 14 5 20 22 7 22 7 3 15 -19
8 -19 8 5 16 23 7 24 8 5 15 -19 8 -19 8 5 18 22 9 22 11 5 12 -19 1 -19 2 -1
9 18 7 18 8 3 14 -21 8 -22 27 -2 27 22 0 18 15 -7 28 -19 9 -20 11 -5 11 19
1 56 31 38 31 -14 0 -14 37 0 46 8 4 7 9 -2 15 -12 8 -11 11 1 19 13 8 13 10
-1 10 -20 0 -35 33 -18 39 8 2 7 6 -2 13 -11 7 -11 11 -1 15 19 8 14 23 -8 23
-27 0 -25 18 3 23 l22 4 -24 8 -23 8 23 13 24 13 -25 1 c-24 1 -24 1 -6 15 20
15 20 15 0 15 -16 0 -17 2 -4 10 12 8 12 10 -5 10 -18 1 -18 2 4 14 23 13 23
14 5 18 -17 5 -17 6 6 16 14 6 19 11 12 11 -7 1 -20 7 -27 15 -12 12 -12 15 2
21 15 5 15 7 3 15 -12 7 -10 11 10 19 21 8 22 10 5 10 -17 1 -20 8 -20 44 0
23 4 45 9 49 5 3 5 18 -2 35 -14 34 -19 114 -8 131 4 7 2 12 -6 12 -9 0 -9 3
2 10 12 8 12 10 -5 11 l-20 0 20 9 c11 5 15 9 9 9 -14 1 -14 111 0 111 5 0 3
7 -4 15 -10 12 -10 15 1 15 9 1 8 5 -5 15 -17 13 -18 15 -3 15 9 0 17 5 17 10
0 6 -5 10 -11 10 -8 0 -8 5 1 15 10 12 9 15 -5 15 -14 0 -15 3 -5 15 10 12 9
15 -6 15 -17 0 -16 3 5 19 l24 19 -23 12 -23 13 24 13 24 13 -30 2 c-30 2 -30
2 5 9 l35 7 -34 8 -33 8 28 13 c16 7 24 13 17 13 -7 1 -9 15 -6 41 3 24 1 46
-6 54 -10 12 -7 15 21 19 32 4 32 4 -7 6 l-40 3 30 13 c29 14 29 14 5 15 -15
0 -20 3 -13 8 9 5 9 20 1 57 -8 36 -7 50 1 53 19 6 12 22 -9 22 -22 0 -27 15
-7 23 8 4 9 8 2 14 -6 4 -12 22 -13 38 -1 17 -7 32 -13 34 -7 2 -7 7 2 13 11
8 12 11 1 15 -10 4 -9 8 5 19 17 12 16 13 -9 14 -27 0 -41 19 -15 21 6 0 3 4
-8 9 -19 8 -19 8 5 18 l25 11 -30 2 c-16 1 -41 1 -55 0 -24 -1 -24 -1 -5 11
19 12 19 12 -5 19 -14 4 86 7 223 8 l247 1 0 -1060z m1074 -1304 c70 -21 79
-31 60 -67 -17 -33 -20 -34 -54 -14 -34 20 -104 19 -121 -1 -22 -26 2 -47 87
-77 95 -33 114 -53 114 -116 -1 -76 -45 -113 -137 -112 -89 0 -171 38 -153 70
25 43 25 43 61 22 50 -29 117 -31 143 -5 28 27 3 51 -76 75 -46 13 -82 31
-101 50 -26 27 -29 35 -24 76 6 53 27 78 83 98 50 18 61 18 118 1z m-858 -191
c46 -104 84 -190 84 -192 0 -2 -18 -3 -39 -3 -37 0 -40 2 -57 45 l-17 46 -95
-3 -95 -3 -16 -42 c-14 -40 -18 -43 -52 -43 l-37 0 64 148 c117 266 103 243
141 240 34 -3 34 -4 119 -193z m261 61 c2 -110 5 -134 21 -155 28 -37 89 -41
128 -7 29 24 29 25 32 161 l4 136 36 -3 37 -3 3 -113 c3 -137 -8 -185 -56
-233 -83 -81 -242 -47 -272 59 -5 20 -10 95 -10 165 l0 128 38 -3 37 -3 2
-129z m895 57 l3 -78 83 -3 82 -3 0 81 0 80 40 0 40 0 0 -195 0 -195 -40 0
-39 0 -3 78 -3 77 -80 0 -80 0 -3 -77 -3 -78 -38 0 -39 0 -1 195 -2 195 40 0
40 0 3 -77z m679 -88 c39 -88 76 -175 84 -192 l14 -33 -40 0 c-38 0 -41 2 -60
45 l-20 45 -89 0 -88 0 -18 -45 c-16 -43 -19 -45 -56 -45 -22 0 -38 4 -36 9 2
5 39 93 83 196 l80 186 38 -3 38 -3 70 -160z m286 20 c1 -77 2 -148 3 -157 0
-16 12 -18 100 -18 l100 0 0 -35 0 -35 -140 0 -140 0 0 196 0 195 38 -3 37 -3
2 -140z m754 135 c44 -12 67 -35 45 -43 -10 -4 -13 -1 -10 7 3 7 -2 13 -10 13
-8 0 -12 -6 -9 -15 9 -21 -15 -31 -52 -20 -44 14 -90 -7 -90 -42 0 -21 8 -28
58 -45 32 -12 55 -24 51 -27 -3 -4 3 -4 14 -2 28 8 70 -34 77 -76 6 -39 -22
-107 -43 -102 -7 1 -12 -3 -12 -8 0 -5 -8 -10 -17 -10 -15 0 -16 2 -3 10 10 7
11 10 2 10 -7 0 -15 -7 -18 -15 -13 -33 -164 -5 -189 35 -4 6 1 20 10 30 15
17 21 18 44 6 63 -32 144 -27 158 10 10 26 -35 58 -99 73 -32 7 -68 23 -82 36
-49 46 -27 149 38 175 29 12 94 12 137 0z m2869 -3090 c0 -16 5 -30 11 -30 5
0 7 -4 4 -10 -3 -5 -1 -10 6 -10 7 0 4 -7 -7 -16 -10 -8 -14 -13 -7 -10 17 9
43 -4 43 -21 0 -8 5 -11 10 -8 6 3 10 -1 10 -10 0 -9 4 -14 9 -11 5 3 11 -4
14 -15 3 -12 10 -18 15 -15 17 10 41 -5 35 -21 -5 -12 -1 -14 15 -9 11 4 23 2
26 -3 4 -6 13 -8 21 -4 8 3 15 0 15 -7 0 -8 -12 -11 -35 -8 -29 3 -34 1 -30
-11 3 -9 3 -12 -1 -8 -4 4 -13 -1 -21 -11 -11 -15 -12 -14 -3 10 6 19 6 29 -2
34 -7 4 -8 3 -4 -4 4 -7 2 -12 -4 -12 -6 0 -8 -5 -5 -10 9 -15 -22 -60 -41
-60 -8 0 -13 -4 -9 -9 3 -5 1 -12 -5 -16 -5 -3 -10 2 -11 12 0 14 -2 15 -6 3
-3 -8 -13 -21 -22 -29 -15 -13 -15 -13 2 -8 19 7 21 0 8 -22 -5 -7 -13 -11
-19 -7 -7 4 -9 -3 -6 -19 2 -14 0 -25 -5 -25 -6 0 -8 -7 -5 -15 4 -8 1 -15 -5
-15 -14 0 -14 27 0 36 8 4 3 12 -12 20 -13 7 -20 13 -15 14 6 0 1 7 -10 15
-18 14 -17 15 8 5 19 -6 29 -6 34 2 4 7 3 8 -4 4 -7 -4 -12 -3 -12 3 0 6 -6 8
-14 5 -17 -7 -75 46 -93 84 -8 15 -11 19 -8 10 5 -19 -3 -22 -23 -10 -16 10
-4 44 12 35 6 -3 8 -3 4 2 -4 4 0 14 10 22 15 13 15 13 -5 3 -12 -5 -26 -18
-31 -27 -7 -11 -15 -14 -28 -8 -11 4 -25 7 -31 6 -7 -1 -13 3 -13 9 0 5 14 10
30 10 17 0 30 5 30 12 0 6 3 8 7 5 3 -4 12 1 20 11 10 11 12 12 8 2 -4 -8 3
-3 15 13 12 15 26 27 32 27 6 0 17 8 24 18 13 16 14 16 9 -3 -5 -16 -3 -16 6
3 13 24 34 31 25 7 -6 -17 2 -19 22 -6 11 6 10 10 -4 15 -16 6 -16 8 2 22 18
14 18 15 -3 4 -29 -13 -31 4 -5 33 9 11 11 17 5 13 -7 -4 -13 -2 -13 3 0 6 4
11 10 11 5 0 7 7 4 15 -4 8 -1 15 5 15 6 0 11 -13 11 -30z"/>
<path d="M5208 6045 l4 -66 56 3 57 3 3 63 3 62 -63 0 -63 0 3 -65z"/>
<path d="M5210 5795 l0 -65 60 0 61 0 -3 63 -3 62 -57 3 -58 3 0 -66z"/>
<path d="M5210 5535 l0 -66 58 3 57 3 3 63 3 62 -61 0 -60 0 0 -65z"/>
<path d="M5208 5275 l4 -66 56 3 57 3 3 63 3 62 -63 0 -63 0 3 -65z"/>
<path d="M5210 5025 l0 -65 60 0 61 0 -3 63 -3 62 -57 3 -58 3 0 -66z"/>
<path d="M5209 4826 c-2 -2 -2 -32 -1 -65 l4 -61 59 0 59 0 0 65 0 65 -58 0
c-32 0 -61 -2 -63 -4z"/>
<path d="M5210 4515 l0 -65 60 0 61 0 -3 63 -3 62 -57 3 -58 3 0 -66z"/>
<path d="M5210 4255 l0 -65 60 0 60 0 0 65 0 65 -60 0 -60 0 0 -65z"/>
</g>
</svg>
